HIERARCHY
ROOT Hips
{
	OFFSET 0.053599 88.859886 3.107447
	CHANNELS 6 Xposition Yposition Zposition Zrotation Yrotation Xrotation 
	JOINT Spine
	{
		OFFSET -0.000000 8.814246 -2.080107
		CHANNELS 3 Zrotation Yrotation Xrotation
		JOINT Spine1
		{
			OFFSET 0.000000 8.844141 0.000000
			CHANNELS 3 Zrotation Yrotation Xrotation
			JOINT Spine2
			{
				OFFSET -0.000000 11.682268 0.000000
				CHANNELS 3 Zrotation Yrotation Xrotation
				JOINT Spine3
				{
					OFFSET 0.000000 11.746700 0.000000
					CHANNELS 3 Zrotation Yrotation Xrotation
					JOINT Neck
					{
						OFFSET -0.000000 17.658264 -0.000000
						CHANNELS 3 Zrotation Yrotation Xrotation
						JOINT Neck1
						{
							OFFSET -0.000000 5.101515 -0.000000
							CHANNELS 3 Zrotation Yrotation Xrotation
							JOINT Head
							{
								OFFSET 0.000000 5.101515 0.000000
								CHANNELS 3 Zrotation Yrotation Xrotation
								JOINT HeadEnd
								{
									OFFSET 0.000000 11.655085 0.000000
									CHANNELS 3 Zrotation Yrotation Xrotation
									End Site
									{
										OFFSET 0.000000 0.000000 0.000000
									}
								}
							}
						}
					}
					JOINT RightShoulder
					{
						OFFSET -2.625389 11.175210 0.000000
						CHANNELS 3 Zrotation Yrotation Xrotation
						JOINT RightArm
						{
							OFFSET -0.000000 10.434715 -0.000000
							CHANNELS 3 Zrotation Yrotation Xrotation
							JOINT RightForeArm
							{
								OFFSET -0.000000 29.628420 0.000000
								CHANNELS 3 Zrotation Yrotation Xrotation
								JOINT RightHand
								{
									OFFSET -0.000000 22.857611 0.000000
									CHANNELS 3 Zrotation Yrotation Xrotation
									JOINT RightHandThumb1
									{
										OFFSET -2.867323 3.959563 2.944291
										CHANNELS 3 Zrotation Yrotation Xrotation
										JOINT RightHandThumb2
										{
											OFFSET 0.000000 3.350399 0.000000
											CHANNELS 3 Zrotation Yrotation Xrotation
											JOINT RightHandThumb3
											{
												OFFSET 0.000000 3.756509 -0.000000
												CHANNELS 3 Zrotation Yrotation Xrotation
												JOINT RightHandThumb4
												{
													OFFSET 0.000000 3.147345 0.000000
													CHANNELS 3 Zrotation Yrotation Xrotation
													End Site
													{
														OFFSET 0.000000 0.000000 0.000000
													}
												}
											}
										}
									}
									JOINT RightHandIndex1
									{
										OFFSET -0.086752 10.030893 2.345280
										CHANNELS 3 Zrotation Yrotation Xrotation
										JOINT RightHandIndex2
										{
											OFFSET -0.000000 4.061090 0.000000
											CHANNELS 3 Zrotation Yrotation Xrotation
											JOINT RightHandIndex3
											{
												OFFSET -0.000000 3.248873 0.000000
												CHANNELS 3 Zrotation Yrotation Xrotation
												JOINT RightHandIndex4
												{
													OFFSET 0.000000 2.639709 -0.000000
													CHANNELS 3 Zrotation Yrotation Xrotation
													End Site
													{
														OFFSET 0.000000 0.000000 0.000000
													}
												}
											}
										}
									}
									JOINT RightHandMiddle1
									{
										OFFSET 0.104102 9.502952 0.006768
										CHANNELS 3 Zrotation Yrotation Xrotation
										JOINT RightHandMiddle2
										{
											OFFSET 0.000000 4.568727 0.000000
											CHANNELS 3 Zrotation Yrotation Xrotation
											JOINT RightHandMiddle3
											{
												OFFSET 0.000000 3.654981 -0.000000
												CHANNELS 3 Zrotation Yrotation Xrotation
												JOINT RightHandMiddle4
												{
													OFFSET -0.000000 2.741236 -0.000000
													CHANNELS 3 Zrotation Yrotation Xrotation
													End Site
													{
														OFFSET 0.000000 0.000000 0.000000
													}
												}
											}
										}
									}
									JOINT RightHandRing1
									{
										OFFSET 0.086752 8.921708 -2.267442
										CHANNELS 3 Zrotation Yrotation Xrotation
										JOINT RightHandRing2
										{
											OFFSET -0.000000 4.061090 0.000000
											CHANNELS 3 Zrotation Yrotation Xrotation
											JOINT RightHandRing3
											{
												OFFSET 0.000000 3.654981 -0.000000
												CHANNELS 3 Zrotation Yrotation Xrotation
												JOINT RightHandRing4
												{
													OFFSET 0.000000 2.741236 -0.000000
													CHANNELS 3 Zrotation Yrotation Xrotation
													End Site
													{
														OFFSET 0.000000 0.000000 0.000000
													}
												}
											}
										}
									}
									JOINT RightHandPinky1
									{
										OFFSET -0.173504 7.976997 -4.467199
										CHANNELS 3 Zrotation Yrotation Xrotation
										JOINT RightHandPinky2
										{
											OFFSET 0.000000 3.350399 -0.000000
											CHANNELS 3 Zrotation Yrotation Xrotation
											JOINT RightHandPinky3
											{
												OFFSET -0.000000 2.842763 0.000000
												CHANNELS 3 Zrotation Yrotation Xrotation
												JOINT RightHandPinky4
												{
													OFFSET -0.000000 2.639709 0.000000
													CHANNELS 3 Zrotation Yrotation Xrotation
													End Site
													{
														OFFSET 0.000000 0.000000 0.000000
													}
												}
											}
										}
									}
									JOINT RightForeArmEnd
									{
										OFFSET 0.000000 0.000000 0.000000
										CHANNELS 3 Zrotation Yrotation Xrotation
										End Site
										{
											OFFSET 0.000000 0.000000 0.000000
										}
									}
								}
								JOINT RightArmEnd
								{
									OFFSET 0.000000 0.000000 0.000000
									CHANNELS 3 Zrotation Yrotation Xrotation
									End Site
									{
										OFFSET 0.000000 0.000000 0.000000
									}
								}
							}
						}
					}
					JOINT LeftShoulder
					{
						OFFSET 2.625389 11.175210 0.000000
						CHANNELS 3 Zrotation Yrotation Xrotation
						JOINT LeftArm
						{
							OFFSET 0.000000 10.813635 -0.000000
							CHANNELS 3 Zrotation Yrotation Xrotation
							JOINT LeftForeArm
							{
								OFFSET 0.000000 28.724781 0.000000
								CHANNELS 3 Zrotation Yrotation Xrotation
								JOINT LeftHand
								{
									OFFSET 0.644384 25.716167 -0.328871
									CHANNELS 3 Zrotation Yrotation Xrotation
									JOINT LeftHandThumb1
									{
										OFFSET 2.867323 3.959563 2.944291
										CHANNELS 3 Zrotation Yrotation Xrotation
										JOINT LeftHandThumb2
										{
											OFFSET 0.000000 3.350399 0.000000
											CHANNELS 3 Zrotation Yrotation Xrotation
											JOINT LeftHandThumb3
											{
												OFFSET -0.000000 3.756509 0.000000
												CHANNELS 3 Zrotation Yrotation Xrotation
												JOINT LeftHandThumb4
												{
													OFFSET -0.000000 3.100000 0.000000
													CHANNELS 3 Zrotation Yrotation Xrotation
													End Site
													{
														OFFSET 0.000000 0.000000 0.000000
													}
												}
											}
										}
									}
									JOINT LeftHandIndex1
									{
										OFFSET 0.086752 10.030893 2.345280
										CHANNELS 3 Zrotation Yrotation Xrotation
										JOINT LeftHandIndex2
										{
											OFFSET -0.000000 4.061090 -0.000000
											CHANNELS 3 Zrotation Yrotation Xrotation
											JOINT LeftHandIndex3
											{
												OFFSET 0.000000 3.248873 -0.000000
												CHANNELS 3 Zrotation Yrotation Xrotation
												JOINT LeftHandIndex4
												{
													OFFSET 0.000000 2.639709 -0.000000
													CHANNELS 3 Zrotation Yrotation Xrotation
													End Site
													{
														OFFSET 0.000000 0.000000 0.000000
													}
												}
											}
										}
									}
									JOINT LeftHandMiddle1
									{
										OFFSET -0.104102 9.502952 0.006768
										CHANNELS 3 Zrotation Yrotation Xrotation
										JOINT LeftHandMiddle2
										{
											OFFSET -0.000000 4.568727 -0.000000
											CHANNELS 3 Zrotation Yrotation Xrotation
											JOINT LeftHandMiddle3
											{
												OFFSET 0.000000 3.654981 0.000000
												CHANNELS 3 Zrotation Yrotation Xrotation
												JOINT LeftHandMiddle4
												{
													OFFSET 0.000000 2.741236 -0.000000
													CHANNELS 3 Zrotation Yrotation Xrotation
													End Site
													{
														OFFSET 0.000000 0.000000 0.000000
													}
												}
											}
										}
									}
									JOINT LeftHandRing1
									{
										OFFSET -0.086752 8.921708 -2.267442
										CHANNELS 3 Zrotation Yrotation Xrotation
										JOINT LeftHandRing2
										{
											OFFSET 0.000000 4.061090 0.000000
											CHANNELS 3 Zrotation Yrotation Xrotation
											JOINT LeftHandRing3
											{
												OFFSET 0.000000 3.654981 0.000000
												CHANNELS 3 Zrotation Yrotation Xrotation
												JOINT LeftHandRing4
												{
													OFFSET 0.000000 2.741236 0.000000
													CHANNELS 3 Zrotation Yrotation Xrotation
													End Site
													{
														OFFSET 0.000000 0.000000 0.000000
													}
												}
											}
										}
									}
									JOINT LeftHandPinky1
									{
										OFFSET 0.173504 7.976997 -4.467199
										CHANNELS 3 Zrotation Yrotation Xrotation
										JOINT LeftHandPinky2
										{
											OFFSET -0.000000 3.350399 -0.000000
											CHANNELS 3 Zrotation Yrotation Xrotation
											JOINT LeftHandPinky3
											{
												OFFSET 0.000000 2.842763 0.000000
												CHANNELS 3 Zrotation Yrotation Xrotation
												JOINT LeftHandPinky4
												{
													OFFSET -0.000000 2.639709 -0.000000
													CHANNELS 3 Zrotation Yrotation Xrotation
													End Site
													{
														OFFSET 0.000000 0.000000 0.000000
													}
												}
											}
										}
									}
									JOINT LeftForeArmEnd
									{
										OFFSET 0.000000 0.000000 0.000000
										CHANNELS 3 Zrotation Yrotation Xrotation
										End Site
										{
											OFFSET 0.000000 0.000000 0.000000
										}
									}
								}
								JOINT LeftArmEnd
								{
									OFFSET 0.000000 0.000000 0.000000
									CHANNELS 3 Zrotation Yrotation Xrotation
									End Site
									{
										OFFSET 0.000000 0.000000 0.000000
									}
								}
							}
						}
					}
				}
			}
		}
	}
	JOINT RightUpLeg
	{
		OFFSET -11.289943 0.000000 0.000000
		CHANNELS 3 Zrotation Yrotation Xrotation
		JOINT RightLeg
		{
			OFFSET 0.000000 -38.200325 0.000000
			CHANNELS 3 Zrotation Yrotation Xrotation
			JOINT RightFoot
			{
				OFFSET -0.000000 -39.900856 -0.000000
				CHANNELS 3 Zrotation Yrotation Xrotation
				JOINT RightToeBase
				{
					OFFSET 0.000000 0.000000 15.261641
					CHANNELS 3 Zrotation Yrotation Xrotation
					JOINT RightToeBaseEnd
					{
						OFFSET 0.000000 0.000000 7.370709
						CHANNELS 3 Zrotation Yrotation Xrotation
						End Site
						{
							OFFSET 0.000000 0.000000 0.000000
						}
					}
				}
				JOINT RightLegEnd
				{
					OFFSET 0.000000 0.000000 0.000000
					CHANNELS 3 Zrotation Yrotation Xrotation
					End Site
					{
						OFFSET 0.000000 0.000000 0.000000
					}
				}
			}
			JOINT RightUpLegEnd
			{
				OFFSET 0.000000 0.000000 0.000000
				CHANNELS 3 Zrotation Yrotation Xrotation
				End Site
				{
					OFFSET 0.000000 0.000000 0.000000
				}
			}
		}
	}
	JOINT LeftUpLeg
	{
		OFFSET 11.315661 -0.000000 0.000000
		CHANNELS 3 Zrotation Yrotation Xrotation
		JOINT LeftLeg
		{
			OFFSET -0.000000 -38.200325 -0.000000
			CHANNELS 3 Zrotation Yrotation Xrotation
			JOINT LeftFoot
			{
				OFFSET 0.000000 -39.900856 -0.000000
				CHANNELS 3 Zrotation Yrotation Xrotation
				JOINT LeftToeBase
				{
					OFFSET -0.000000 -0.000000 15.261641
					CHANNELS 3 Zrotation Yrotation Xrotation
					JOINT LeftToeBaseEnd
					{
						OFFSET 0.000000 -0.000000 7.539996
						CHANNELS 3 Zrotation Yrotation Xrotation
						End Site
						{
							OFFSET 0.000000 0.000000 0.000000
						}
					}
				}
				JOINT LeftLegEnd
				{
					OFFSET 0.000000 0.000000 0.000000
					CHANNELS 3 Zrotation Yrotation Xrotation
					End Site
					{
						OFFSET 0.000000 0.000000 0.000000
					}
				}
			}
			JOINT LeftUpLegEnd
			{
				OFFSET 0.000000 0.000000 0.000000
				CHANNELS 3 Zrotation Yrotation Xrotation
				End Site
				{
					OFFSET 0.000000 0.000000 0.000000
				}
			}
		}
	}
}
MOTION
Frames: 4
Frame Time: 0.016667
0.583652 88.811165 3.213841 -0.388816 -1.447870 -9.995063 1.258154 0.064926 6.515788 -1.061128 0.236618 2.736803 0.408826 -0.885894 3.639092 -1.250067 0.127510 4.476670 1.533235 0.229866 3.772381 0.391257 0.617496 -3.595034 -0.402473 -1.001131 -19.602091 0.000000 0.000000 0.000000 91.615761 -0.038984 9.622602 67.211273 -24.264074 1.572513 -0.339815 19.327972 47.554398 3.777118 9.087493 -3.747061 20.058363 30.055105 61.820339 -8.638689 -12.684038 -21.249798 -6.473076 -8.309590 -14.674384 0.000000 0.000000 0.000000 14.566800 -11.365453 2.460461 11.130657 0.251025 1.682010 10.841790 -0.175927 1.628319 0.000000 0.000000 0.000000 13.649003 -5.856655 1.013955 9.776801 0.405758 0.643933 10.380712 -0.079702 0.561242 0.000000 0.000000 0.000000 13.652940 2.107759 -0.190125 10.295410 -0.853925 -0.970703 10.300496 0.094976 -0.705239 0.000000 0.000000 0.000000 11.648041 10.891705 -2.224455 9.498258 -1.543894 -2.826613 9.525997 0.360799 -2.317016 0.000000 0.000000 0.000000 0.000000 0.000000 0.000000 0.000000 0.000000 0.000000 -88.513832 0.154294 4.983846 -73.222649 14.156417 -8.638595 -0.552095 -15.081201 61.152531 -3.224267 -14.479703 -10.563597 -20.733744 -29.905968 61.146034 9.238283 13.940790 -23.137554 6.967268 9.331825 -16.238224 0.000000 0.000000 0.000000 -23.473635 -4.702043 2.145703 -15.271218 0.257543 -1.447723 -15.099471 -0.210600 -1.400711 0.000000 0.000000 0.000000 -22.898926 0.424087 0.657120 -15.201193 0.380868 -0.655341 -15.320863 -0.100361 -0.534244 0.000000 0.000000 0.000000 -25.969410 8.630501 -0.668015 -17.467592 -0.823220 1.033460 -17.530937 0.128669 0.800940 0.000000 0.000000 0.000000 -27.683741 17.179569 -2.805925 -18.421442 -1.439103 3.312057 -18.029865 0.529267 2.830427 0.000000 0.000000 0.000000 0.000000 0.000000 0.000000 0.000000 0.000000 0.000000 -0.608572 -9.202748 14.042192 -0.063817 -0.623684 5.126916 -2.700215 -7.861900 18.119171 -0.810208 0.774874 -18.749290 0.000000 0.000000 0.000000 0.000000 0.000000 0.000000 0.000000 0.000000 0.000000 -1.335359 -6.205176 8.713518 0.081696 0.339313 10.187140 3.879005 -0.832533 16.897507 0.313339 -0.386265 -21.004633 0.000000 0.000000 0.000000 0.000000 0.000000 0.000000 0.000000 0.000000 0.000000 
0.586016 88.806885 3.206254 -0.394906 -1.464336 -10.031380 1.273086 0.068298 6.528705 -1.054448 0.238677 2.748816 0.392400 -0.857729 3.638766 -1.248260 0.143051 4.489731 1.513778 0.227242 3.810947 0.403135 0.603206 -3.567836 -0.409580 -1.013500 -19.602379 0.000000 0.000000 0.000000 91.591248 -0.025144 9.640925 67.150612 -24.103493 1.597134 -0.347854 19.397142 47.966225 3.813860 8.895401 -3.750148 20.070248 30.050522 61.807327 -8.654418 -12.708226 -21.289898 -6.485491 -8.324444 -14.700305 0.000000 0.000000 0.000000 14.679966 -11.380289 2.510686 11.180936 0.250123 1.686761 10.891173 -0.176521 1.634787 0.000000 0.000000 0.000000 13.749221 -5.875849 1.044392 9.824250 0.405677 0.645323 10.431537 -0.080015 0.562752 0.000000 0.000000 0.000000 13.813343 2.080439 -0.181025 10.378356 -0.853478 -0.973725 10.376659 0.095232 -0.707395 0.000000 0.000000 0.000000 11.824963 10.867254 -2.245714 9.600581 -1.543361 -2.835876 9.628598 0.361109 -2.322856 0.000000 0.000000 0.000000 0.000000 0.000000 0.000000 0.000000 0.000000 0.000000 -88.522774 0.159144 4.961083 -73.162193 13.848580 -8.648957 -0.552056 -15.152267 61.381084 -3.191272 -14.062043 -10.621887 -20.737070 -29.901371 61.139812 9.252049 13.951351 -23.151081 6.974604 9.335973 -16.248577 0.000000 0.000000 0.000000 -23.506411 -4.689009 2.200182 -15.290030 0.257461 -1.455536 -15.119523 -0.210985 -1.407593 0.000000 0.000000 0.000000 -22.966982 0.439969 0.687211 -15.229320 0.380779 -0.658988 -15.356833 -0.100417 -0.536926 0.000000 0.000000 0.000000 -26.134691 8.651816 -0.662204 -17.567345 -0.822382 1.039620 -17.629076 0.129300 0.805681 0.000000 0.000000 0.000000 -27.902414 17.209759 -2.840899 -18.574493 -1.434718 3.334655 -18.170408 0.532813 2.847453 0.000000 0.000000 0.000000 0.000000 0.000000 0.000000 0.000000 0.000000 0.000000 -0.596421 -9.214571 14.077124 -0.063550 -0.623706 5.128016 -2.719963 -7.812406 18.104635 -0.806114 0.779060 -18.738579 0.000000 0.000000 0.000000 0.000000 0.000000 0.000000 0.000000 0.000000 0.000000 -1.301311 -6.208498 8.736553 0.082288 0.339978 10.230244 3.872983 -0.815955 16.872948 0.312727 -0.384609 -20.997196 0.000000 0.000000 0.000000 0.000000 0.000000 0.000000 0.000000 0.000000 0.000000 
0.586471 88.802193 3.196560 -0.403871 -1.474979 -10.064814 1.289514 0.071019 6.545496 -1.049535 0.241623 2.761913 0.377465 -0.832859 3.643743 -1.245921 0.158244 4.505241 1.502484 0.221376 3.848500 0.417446 0.592792 -3.538431 -0.417484 -1.027605 -19.602564 0.000000 0.000000 0.000000 91.569016 -0.013948 9.655575 67.092613 -23.948307 1.603314 -0.357924 19.454557 48.356865 3.837550 8.699434 -3.757141 20.075285 30.048042 61.800396 -8.663610 -12.719897 -21.311386 -6.492495 -8.330788 -14.712897 0.000000 0.000000 0.000000 14.754202 -11.390316 2.563163 11.212593 0.250732 1.687050 10.923045 -0.175636 1.637363 0.000000 0.000000 0.000000 13.812342 -5.889474 1.075643 9.854322 0.406200 0.644862 10.464043 -0.079741 0.562697 0.000000 0.000000 0.000000 13.946836 2.058275 -0.173579 10.445866 -0.854088 -0.974544 10.436357 0.094867 -0.708032 0.000000 0.000000 0.000000 11.985021 10.846808 -2.269679 9.692226 -1.545245 -2.838946 9.718659 0.359589 -2.324090 0.000000 0.000000 0.000000 0.000000 0.000000 0.000000 0.000000 0.000000 0.000000 -88.533829 0.162128 4.935967 -73.104675 13.529905 -8.667779 -0.548222 -15.209951 61.595516 -3.168604 -13.665966 -10.691059 -20.720455 -29.901016 61.150173 9.251074 13.923456 -23.109694 6.968393 9.314804 -16.220448 0.000000 0.000000 0.000000 -23.409260 -4.696769 2.293919 -15.213196 0.260870 -1.453524 -15.044445 -0.208011 -1.405371 0.000000 0.000000 0.000000 -22.908756 0.435808 0.739583 -15.161971 0.382225 -0.658449 -15.297337 -0.099139 -0.536113 0.000000 0.000000 0.000000 -26.182575 8.654291 -0.658176 -17.570581 -0.823798 1.040257 -17.630226 0.128212 0.806119 0.000000 0.000000 0.000000 -28.018950 17.224649 -2.899790 -18.637043 -1.436138 3.342817 -18.220615 0.531622 2.852646 0.000000 0.000000 0.000000 0.000000 0.000000 0.000000 0.000000 0.000000 0.000000 -0.581673 -9.238937 14.113256 -0.063230 -0.623789 5.129358 -2.740813 -7.764572 18.087112 -0.801610 0.784199 -18.728943 0.000000 0.000000 0.000000 0.000000 0.000000 0.000000 0.000000 0.000000 0.000000 -1.265137 -6.217778 8.747492 0.082774 0.340662 10.282184 3.864873 -0.801522 16.846840 0.312126 -0.382929 -20.992327 0.000000 0.000000 0.000000 0.000000 0.000000 0.000000 0.000000 0.000000 0.000000 
0.585165 88.796921 3.185237 -0.414745 -1.478586 -10.094694 1.306992 0.073022 6.565922 -1.046045 0.245290 2.775225 0.364250 -0.811010 3.653204 -1.243994 0.172400 4.522219 1.496709 0.213332 3.885513 0.433348 0.586311 -3.507585 -0.425850 -1.043265 -19.603165 0.000000 0.000000 0.000000 91.549652 -0.004137 9.666995 67.040588 -23.808796 1.586891 -0.368959 19.497768 48.703918 3.852317 8.499037 -3.769013 20.073101 30.047678 61.800190 -8.666252 -12.717956 -21.312878 -6.494104 -8.327897 -14.711088 0.000000 0.000000 0.000000 14.786429 -11.394984 2.618075 11.224293 0.252916 1.682395 10.935740 -0.173277 1.635539 0.000000 0.000000 0.000000 13.838350 -5.897091 1.107681 9.866098 0.407313 0.642242 10.476766 -0.078889 0.560917 0.000000 0.000000 0.000000 14.054015 2.041147 -0.166925 10.496753 -0.855614 -0.972711 10.477822 0.093898 -0.706804 0.000000 0.000000 0.000000 12.130022 10.829642 -2.293176 9.771593 -1.549300 -2.834407 9.794324 0.356200 -2.319058 0.000000 0.000000 0.000000 0.000000 0.000000 0.000000 0.000000 0.000000 0.000000 -88.549072 0.163709 4.909198 -73.048141 13.219586 -8.689556 -0.540975 -15.251134 61.788013 -3.153118 -13.274415 -10.764361 -20.685612 -29.904917 61.176456 9.235674 13.859836 -23.016893 6.949076 9.270021 -16.156481 0.000000 0.000000 0.000000 -23.190022 -4.724902 2.423645 -15.051202 0.267186 -1.442811 -14.885295 -0.202238 -1.395085 0.000000 0.000000 0.000000 -22.733219 0.412467 0.814204 -15.008250 0.384926 -0.654171 -15.151936 -0.096749 -0.532227 0.000000 0.000000 0.000000 -26.116955 8.639468 -0.653218 -17.483530 -0.827112 1.035893 -17.540392 0.125642 0.802780 0.000000 0.000000 0.000000 -28.032963 17.225748 -2.974660 -18.612286 -1.442349 3.338053 -18.184668 0.526377 2.847129 0.000000 0.000000 0.000000 0.000000 0.000000 0.000000 0.000000 0.000000 0.000000 -0.565599 -9.274343 14.151200 -0.062921 -0.624101 5.128562 -2.763528 -7.716505 18.067017 -0.796794 0.789829 -18.720358 0.000000 0.000000 0.000000 0.000000 0.000000 0.000000 0.000000 0.000000 0.000000 -1.227875 -6.231263 8.748091 0.083187 0.341292 10.340051 3.854845 -0.788961 16.818960 0.311448 -0.381232 -20.990185 0.000000 0.000000 0.000000 0.000000 0.000000 0.000000 0.000000 0.000000 0.000000 
